<?xml version="1.0" standalone="no"?>
<!DOCTYPE svg PUBLIC "-//W3C//DTD SVG 20010904//EN"
 "http://www.w3.org/TR/2001/REC-SVG-20010904/DTD/svg10.dtd">
<svg version="1.0" xmlns="http://www.w3.org/2000/svg"
 width="1080.000000pt" height="1080.000000pt" viewBox="0 0 1080.000000 1080.000000"
 preserveAspectRatio="xMidYMid meet">
<metadata>
Created by potrace 1.16, written by Peter Selinger 2001-2019
</metadata>
<g transform="translate(0.000000,1080.000000) scale(0.100000,-0.100000)"
fill="#000000" stroke="none">
<path d="M5155 9490 c-49 -11 -105 -31 -125 -44 -19 -13 -46 -26 -59 -31 -13
-4 -40 -24 -62 -45 -21 -20 -64 -57 -96 -81 -93 -71 -265 -209 -309 -248 -22
-20 -66 -58 -97 -84 -32 -27 -55 -53 -51 -58 3 -5 1 -9 -5 -9 -5 0 -20 -9 -33
-20 -12 -11 -35 -29 -49 -40 -28 -21 -45 -60 -26 -60 7 0 -2 -15 -20 -33 -55
-54 -90 -101 -97 -127 -4 -14 -16 -43 -26 -65 -10 -22 -20 -59 -24 -83 -3 -23
-10 -51 -16 -61 -8 -15 -5 -22 14 -35 31 -20 39 -66 38 -229 0 -100 3 -129 13
-133 9 -4 12 -17 10 -39 -3 -21 1 -39 10 -48 7 -8 16 -33 19 -57 6 -53 9 -55
40 -34 23 15 33 15 85 4 32 -7 66 -10 77 -8 12 2 23 -5 31 -20 18 -33 44 -168
37 -186 -4 -12 0 -16 16 -16 11 0 19 3 17 8 -4 6 5 81 32 274 11 81 33 171 43
178 3 3 8 17 10 32 2 14 9 32 16 40 6 8 8 19 4 23 -4 5 -1 5 6 1 6 -4 12 -2
12 3 0 6 7 11 15 11 8 0 15 -7 15 -15 0 -12 4 -11 20 5 11 11 29 20 40 20 10
0 23 6 27 14 4 7 24 21 43 31 19 10 56 38 81 64 53 53 61 59 114 86 22 10 59
32 82 47 23 15 46 28 51 28 15 0 72 34 72 43 0 14 48 26 77 18 15 -4 38 -4 50
2 17 7 26 6 39 -8 17 -16 18 -16 33 4 9 11 33 26 55 34 35 12 37 14 23 29 -13
13 -14 18 -4 26 9 8 16 6 25 -9 7 -10 19 -19 26 -19 8 0 17 -4 20 -9 4 -5 -4
-6 -16 -3 -22 5 -22 5 -6 -12 13 -13 16 -28 12 -61 -5 -42 -4 -45 18 -42 13 1
28 9 35 17 10 13 12 13 19 -3 5 -15 9 -16 15 -5 8 11 10 11 18 0 6 -11 10 -9
14 7 5 19 10 21 45 15 25 -4 42 -2 46 5 13 20 26 11 48 -34 12 -25 26 -45 30
-45 4 0 8 -8 9 -17 0 -15 2 -15 8 2 8 19 8 19 19 -2 16 -29 -8 -51 -31 -29
-12 13 -16 10 -27 -25 -7 -21 -18 -40 -24 -40 -47 -5 -73 -18 -79 -38 -3 -12
-18 -20 -48 -26 -77 -13 -89 -14 -89 -4 0 19 -21 8 -53 -27 -28 -31 -37 -35
-52 -26 -12 6 -19 21 -20 39 0 17 -5 27 -12 26 -12 -3 -14 3 -12 23 0 3 -10
13 -23 23 -20 16 -45 18 -208 18 -102 0 -194 3 -206 6 -14 5 -28 1 -44 -13
-13 -11 -19 -20 -14 -20 6 0 15 5 22 12 7 7 12 8 12 4 0 -12 -32 -35 -48 -36
-7 0 -10 5 -6 12 4 7 3 8 -5 4 -6 -4 -9 -11 -6 -16 3 -5 -7 -16 -23 -24 -27
-14 -41 -32 -48 -63 -1 -6 4 -9 12 -6 20 8 17 -14 -3 -26 -15 -9 -13 -10 12
-11 l30 0 -24 -19 -24 -18 39 -5 c28 -4 55 2 99 22 33 15 79 30 102 33 36 4
48 1 83 -26 22 -17 40 -34 40 -38 0 -3 -27 -9 -61 -12 -102 -9 -187 -45 -241
-102 -56 -58 -50 -68 37 -59 42 4 77 1 115 -10 87 -26 90 -32 24 -46 -82 -16
-83 -16 -49 -29 48 -20 148 -25 219 -11 95 18 150 64 173 143 12 44 22 61 40
68 12 4 23 15 23 23 0 8 7 19 16 24 15 8 15 10 -1 15 -9 4 -13 11 -10 17 9 14
48 13 64 -2 11 -11 12 -10 6 1 -5 9 -3 12 5 9 13 -4 41 -94 32 -103 -3 -2 1
-11 8 -20 7 -8 10 -22 6 -30 -3 -8 -1 -15 4 -15 6 0 10 -8 10 -18 0 -30 48
-139 86 -196 31 -47 34 -56 24 -82 -15 -39 -39 -64 -61 -64 -10 0 -22 -6 -26
-14 -4 -7 -33 -25 -63 -39 -48 -23 -56 -25 -66 -12 -17 22 -30 19 -84 -22 -27
-21 -59 -45 -70 -53 -39 -27 4 -70 70 -70 16 0 32 -5 36 -11 5 -8 10 -6 16 5
5 8 18 21 30 27 12 7 18 7 14 1 -11 -18 13 -64 54 -103 31 -30 48 -39 75 -39
19 0 35 -4 35 -10 0 -5 -23 -10 -51 -10 -37 0 -48 3 -43 13 6 9 3 8 -9 -1 -9
-8 -27 -12 -40 -10 -25 3 -56 -9 -200 -75 -69 -32 -90 -38 -100 -28 -9 9 -9
14 2 20 7 5 11 15 9 22 -3 8 -1 24 3 37 7 18 5 22 -11 22 -11 0 -20 -4 -20
-10 0 -5 -5 -10 -11 -10 -5 0 -8 4 -4 9 13 22 -15 19 -39 -4 -15 -14 -34 -25
-42 -25 -8 0 -13 -4 -9 -9 3 -6 -8 -25 -25 -44 -16 -19 -30 -39 -30 -43 0 -5
7 0 15 10 8 11 16 16 16 10 4 -32 3 -40 -5 -51 -5 -8 -4 -13 3 -13 7 0 9 -5 6
-11 -4 -6 1 -18 11 -28 16 -14 28 -15 72 -8 28 5 52 13 52 18 0 5 7 9 15 9 8
0 49 11 91 26 72 24 82 25 207 17 103 -6 132 -11 132 -22 0 -14 -11 -18 -70
-26 -59 -8 -170 -18 -177 -17 -5 1 -8 -2 -8 -7 0 -12 19 -18 82 -27 56 -7 55
-19 -2 -29 -37 -6 -46 -17 -41 -47 0 -5 -3 -8 -9 -8 -5 0 -10 -13 -10 -30 0
-20 5 -30 15 -30 9 0 18 -7 21 -15 4 -8 11 -12 17 -8 6 4 8 0 4 -10 -5 -14 0
-17 28 -17 18 0 36 -4 39 -9 4 -5 29 -8 56 -6 28 2 50 -1 50 -6 0 -5 7 -9 15
-9 18 0 20 -26 3 -34 -7 -3 -2 -3 11 0 22 6 23 4 18 -22 -3 -19 0 -35 10 -46
13 -15 13 -18 -6 -28 -12 -6 -21 -7 -21 -1 0 5 -8 12 -17 14 -17 4 -17 5 0 6
16 1 16 3 -2 23 -17 17 -23 19 -36 8 -13 -10 -15 -9 -15 6 0 13 -3 15 -8 7 -5
-8 -13 -9 -22 -3 -10 6 -20 -1 -37 -26 -23 -34 -87 -69 -104 -58 -5 3 -16 -2
-25 -10 -8 -9 -24 -16 -34 -16 -10 0 -22 -5 -26 -11 -4 -7 -22 -9 -49 -4 -28
4 -46 2 -50 -6 -6 -8 -10 -8 -15 2 -7 10 -12 10 -26 -2 -13 -11 -18 -11 -21
-1 -3 6 -11 12 -18 12 -7 0 -16 6 -19 13 -5 10 -7 10 -12 0 -3 -7 -12 -13 -20
-13 -8 0 -14 -5 -14 -11 0 -6 -7 -4 -15 5 -8 8 -15 20 -15 26 0 6 -4 9 -10 5
-10 -6 -44 11 -72 38 -12 11 -34 17 -63 17 -31 0 -44 4 -43 13 2 7 -5 11 -17
9 -54 -8 -58 -23 -17 -67 15 -16 33 -43 41 -58 9 -16 20 -26 28 -23 8 4 13 -3
13 -19 0 -13 7 -31 16 -40 9 -9 18 -30 19 -47 2 -22 9 -34 25 -40 14 -5 20
-14 16 -23 -3 -8 -2 -15 2 -15 4 0 15 -13 25 -29 13 -22 26 -30 63 -35 46 -6
124 -42 124 -58 0 -4 6 -8 13 -8 24 0 50 -39 51 -75 1 -24 6 -35 16 -35 12 0
13 -2 1 -9 -19 -12 -5 -30 18 -24 10 3 22 0 25 -6 8 -13 -55 -31 -68 -20 -14
13 -28 11 -20 -3 5 -7 2 -9 -8 -5 -21 7 -18 -16 5 -41 10 -11 15 -26 11 -35
-4 -12 4 -20 28 -31 18 -8 27 -15 20 -15 -7 -1 -27 6 -44 15 -16 9 -28 11 -24
6 3 -5 20 -15 37 -22 32 -14 32 -14 8 -22 -21 -8 -22 -10 -7 -19 10 -5 14 -17
11 -29 -3 -12 0 -20 7 -20 10 0 10 -3 0 -14 -9 -12 -7 -21 11 -45 12 -16 31
-32 42 -35 13 -3 18 -11 15 -24 -3 -11 -1 -26 4 -35 7 -14 1 -16 -47 -13 -57
3 -69 -6 -37 -30 16 -13 16 -13 -4 -14 -11 0 -24 4 -30 9 -13 13 -74 21 -74
10 0 -5 5 -9 10 -9 6 0 18 -8 28 -17 11 -10 29 -26 40 -35 27 -21 19 -48 -11
-41 -20 4 -20 3 3 -11 24 -15 23 -15 -29 -11 -47 4 -52 3 -47 -12 6 -15 5 -15
-13 1 -11 10 -19 23 -18 29 1 6 -7 12 -18 14 -16 3 -17 2 -5 -6 12 -9 11 -11
-9 -11 -18 0 -22 4 -18 19 3 12 -1 22 -11 26 -14 5 -14 7 -2 15 12 8 10 10 -7
10 -14 0 -23 6 -23 16 0 11 -6 14 -20 9 -11 -3 -26 -3 -34 2 -14 8 -16 12 -16
33 0 6 -7 10 -15 10 -8 0 -15 6 -15 14 0 8 -7 17 -16 20 -9 4 -14 13 -10 21 3
9 0 15 -9 15 -8 0 -15 6 -15 13 0 7 -9 23 -21 35 -11 12 -17 27 -13 34 4 6 3
8 -3 5 -14 -8 -30 17 -104 159 -34 64 -68 147 -79 190 -11 43 -22 79 -24 82
-7 6 -69 -85 -83 -121 -6 -18 -12 -46 -12 -64 -1 -26 -8 -35 -43 -56 -24 -14
-81 -64 -126 -111 -46 -47 -94 -88 -105 -92 -122 -38 -356 -143 -506 -228 -34
-20 -129 -66 -210 -102 -80 -36 -182 -83 -226 -103 -44 -21 -97 -44 -118 -50
-65 -22 -327 -161 -438 -233 -133 -86 -145 -106 -200 -335 -86 -362 -110 -492
-119 -653 -10 -174 -31 -301 -95 -570 -24 -102 -49 -214 -55 -250 -5 -36 -24
-114 -40 -175 -17 -60 -44 -171 -61 -245 -16 -74 -36 -157 -44 -185 -25 -93
-64 -270 -70 -320 -6 -46 -51 -231 -59 -244 -8 -12 -56 -201 -56 -219 0 -43
147 -85 355 -102 160 -13 172 -16 184 -38 12 -23 59 -233 67 -302 14 -120 69
-232 173 -355 20 -23 76 -94 125 -158 l90 -116 185 -90 c583 -282 1190 -445
1869 -502 214 -18 787 -6 993 20 622 79 1133 227 1656 481 287 139 531 282
746 439 66 47 132 95 147 106 16 11 33 30 39 42 19 42 39 170 56 358 10 105
22 195 29 202 6 6 60 25 120 43 61 17 135 41 165 53 55 22 56 23 54 63 -1 22
-24 96 -51 164 -27 69 -52 149 -55 177 -3 29 -17 88 -31 130 -14 43 -37 133
-51 200 -28 131 -151 599 -185 700 -23 70 -43 174 -60 308 -10 84 -90 509
-126 675 -9 41 -44 163 -79 270 -35 107 -66 211 -70 230 -18 99 -35 131 -89
164 -28 18 -69 39 -91 46 -22 7 -85 36 -140 65 -123 65 -249 118 -335 140 -37
9 -119 46 -191 86 -70 38 -176 92 -235 118 -118 53 -323 148 -393 184 -26 13
-54 38 -69 62 -48 77 -192 213 -296 280 -79 51 -110 78 -141 123 -22 31 -54
73 -72 93 l-33 36 21 203 c20 198 22 205 60 279 37 72 71 173 98 288 l13 51
36 -15 c51 -21 136 -12 169 19 20 19 24 29 18 58 -3 19 -6 44 -7 55 -1 29 38
201 61 269 24 67 29 215 10 263 -15 38 -21 103 -9 103 6 0 10 9 10 19 0 11 4
21 10 23 5 2 11 15 12 31 1 15 6 27 11 27 5 0 7 11 5 25 -3 14 -1 28 4 31 5 3
7 12 4 20 -3 8 -1 14 4 14 6 0 10 11 10 25 0 14 5 25 10 25 6 0 8 11 4 26 -4
16 -2 29 5 33 7 5 13 18 14 29 1 12 4 22 8 22 3 0 3 18 -1 40 -4 23 -3 43 2
46 5 3 4 12 -3 21 -7 8 -12 39 -11 70 0 31 -7 74 -16 97 -22 55 -113 145 -187
186 -33 18 -68 40 -78 49 -17 14 -17 16 1 31 24 18 82 149 82 184 0 45 -21
126 -33 123 -6 -1 -13 7 -15 18 -2 11 -12 30 -22 42 -26 34 -135 113 -199 145
-31 16 -74 39 -96 53 -61 36 -362 142 -456 160 -46 8 -97 20 -114 25 -39 12
-100 17 -270 24 -118 5 -154 3 -230 -14z m790 -1786 c27 -3 63 -11 79 -19 16
-8 32 -12 37 -9 5 3 9 -2 9 -10 0 -8 9 -20 21 -26 23 -13 22 -14 38 18 6 12
16 22 21 22 15 0 12 -30 -2 -30 -7 -1 -3 -9 10 -19 24 -21 30 -46 8 -38 -12 5
-12 2 0 -21 18 -36 18 -44 -7 -70 -11 -13 -18 -30 -15 -40 10 -31 -10 -47 -59
-46 -25 0 -45 -3 -45 -7 0 -11 -81 26 -91 42 -4 7 -5 17 -3 21 3 5 0 7 -7 6
-6 -2 -14 3 -16 10 -3 6 0 12 6 12 6 0 11 5 11 10 0 6 -10 8 -23 5 -27 -7 -51
21 -62 71 -4 16 -13 46 -21 66 -13 35 -12 38 9 53 12 8 29 13 37 10 8 -4 37
-8 65 -11z m370 -2221 c4 -38 16 -124 27 -193 44 -275 15 -364 -167 -517 -32
-27 -41 -30 -60 -21 -14 6 -21 16 -18 24 3 8 0 14 -7 14 -6 0 -9 -4 -6 -8 10
-16 -54 -72 -168 -147 -104 -69 -136 -84 -279 -132 -158 -53 -208 -76 -256
-117 -21 -18 -20 -14 7 23 17 24 43 56 57 72 29 33 32 49 9 49 -18 0 -97 78
-134 133 -13 19 -36 43 -52 53 -29 20 -39 48 -14 38 11 -4 13 0 9 15 -3 11 -9
19 -13 16 -11 -7 -21 38 -10 49 4 4 7 14 6 20 -2 6 -1 8 1 4 9 -15 31 -8 36
12 4 15 0 20 -15 20 -10 0 -17 4 -14 9 3 5 -1 8 -9 7 -7 0 -13 4 -13 9 1 6 9
9 20 7 10 -2 18 1 18 7 0 18 -89 79 -125 85 -19 4 -35 11 -35 16 0 6 -7 10
-15 10 -8 0 -15 7 -15 16 0 8 -4 13 -9 9 -6 -3 -24 8 -40 24 -31 30 -41 48
-20 35 8 -5 8 -1 0 14 -6 12 -18 25 -27 30 -12 7 -14 17 -9 46 6 30 11 37 29
34 11 -1 26 1 31 4 6 4 38 1 71 -6 33 -7 69 -12 79 -10 10 1 41 -9 68 -22 42
-22 61 -25 121 -23 39 2 77 0 84 -5 7 -4 19 -3 26 4 11 8 15 8 18 -1 3 -9 9
-9 25 0 12 6 29 11 38 11 9 0 25 9 37 20 12 10 24 17 28 15 4 -2 15 2 26 9 19
15 48 10 38 -6 -3 -5 1 -17 10 -27 8 -9 17 -28 18 -42 4 -29 25 -48 49 -42 9
3 20 0 23 -6 11 -17 34 -13 65 10 37 27 61 16 33 -15 -50 -54 -262 -394 -262
-419 0 -15 17 -5 57 32 22 22 67 56 100 76 137 88 153 99 158 114 3 9 23 30
45 46 31 24 39 37 40 63 0 45 0 45 13 60 6 8 7 16 1 20 -14 11 -17 114 -3 123
6 3 13 17 14 30 7 56 124 304 125 264 0 -6 10 -12 23 -13 30 -3 98 19 91 29
-3 5 -1 9 5 9 5 0 12 -30 16 -67z m1319 -3619 c26 -25 49 -121 44 -182 -4 -45
-10 -60 -33 -80 -39 -33 -43 -22 -51 142 -6 120 -5 136 9 136 8 0 23 -7 31
-16z"/>
<path d="M4199 7754 c-18 -50 -22 -120 -9 -188 7 -37 16 -68 20 -71 4 -2 10
30 14 71 12 126 50 188 93 152 14 -12 15 -11 5 8 -16 31 -36 44 -76 51 -32 5
-37 3 -47 -23z"/>
<path d="M4350 7580 c-12 -12 -25 -31 -30 -43 -6 -12 -17 -31 -25 -43 -14 -19
-14 -23 5 -47 11 -14 20 -30 20 -37 0 -28 38 0 67 50 34 56 40 88 23 121 -14
25 -35 24 -60 -1z"/>
</g>
</svg>
